G04 MADE WITH FRITZING*
G04 WWW.FRITZING.ORG*
G04 DOUBLE SIDED*
G04 HOLES PLATED*
G04 CONTOUR ON CENTER OF CONTOUR VECTOR*
%ASAXBY*%
%FSLAX23Y23*%
%MOIN*%
%OFA0B0*%
%SFA1.0B1.0*%
%ADD10C,0.067559*%
%ADD11C,0.110236*%
%ADD12R,0.118110X0.314961*%
%ADD13C,0.008000*%
%ADD14C,0.024000*%
%ADD15C,0.032000*%
%LNCOPPER0*%
G90*
G70*
G54D10*
X602Y629D03*
X602Y1054D03*
X977Y1266D03*
X1340Y1054D03*
X1340Y629D03*
X977Y416D03*
G54D11*
X549Y1578D03*
G54D12*
X1552Y841D03*
X402Y841D03*
G54D13*
X889Y1467D02*
X952Y1354D01*
D02*
X952Y1354D02*
X972Y1285D01*
D02*
X852Y1478D02*
X889Y1467D01*
D02*
X833Y1467D02*
X852Y1478D01*
G54D14*
D02*
X715Y1179D02*
X803Y1054D01*
D02*
X803Y1054D02*
X602Y878D01*
D02*
X602Y878D02*
X602Y653D01*
D02*
X740Y1292D02*
X715Y1179D01*
D02*
X774Y1313D02*
X740Y1292D01*
G54D13*
D02*
X1077Y1204D02*
X1323Y1063D01*
D02*
X877Y1528D02*
X1077Y1204D01*
D02*
X777Y1541D02*
X877Y1528D01*
D02*
X724Y1519D02*
X777Y1541D01*
D02*
X927Y1354D02*
X927Y1191D01*
D02*
X726Y1354D02*
X877Y1442D01*
D02*
X665Y1365D02*
X726Y1354D01*
D02*
X927Y1191D02*
X1328Y644D01*
D02*
X877Y1442D02*
X927Y1354D01*
D02*
X617Y1336D02*
X665Y1365D01*
G54D14*
D02*
X464Y842D02*
X721Y1066D01*
D02*
X721Y1066D02*
X626Y1200D01*
D02*
X456Y842D02*
X464Y842D01*
D02*
X865Y416D02*
X952Y416D01*
D02*
X364Y694D02*
X865Y416D01*
D02*
X402Y841D02*
X364Y694D01*
G54D15*
D02*
X1064Y353D02*
X890Y353D01*
D02*
X315Y1054D02*
X572Y1054D01*
D02*
X315Y666D02*
X315Y1054D01*
D02*
X890Y353D02*
X315Y666D01*
D02*
X1552Y666D02*
X1064Y353D01*
D02*
X1552Y689D02*
X1552Y666D01*
G54D14*
D02*
X439Y1303D02*
X589Y1074D01*
D02*
X439Y1341D02*
X439Y1303D01*
D02*
X454Y1351D02*
X439Y1341D01*
G36*
X903Y1364D02*
X782Y1290D01*
X755Y1333D01*
X876Y1408D01*
X903Y1364D01*
G37*
D02*
G36*
X850Y1449D02*
X729Y1375D01*
X702Y1418D01*
X823Y1493D01*
X850Y1449D01*
G37*
D02*
G36*
X797Y1534D02*
X677Y1460D01*
X650Y1503D01*
X770Y1578D01*
X797Y1534D01*
G37*
D02*
G36*
X688Y1232D02*
X568Y1157D01*
X541Y1200D01*
X661Y1275D01*
X688Y1232D01*
G37*
D02*
G36*
X636Y1317D02*
X515Y1242D01*
X488Y1286D01*
X609Y1360D01*
X636Y1317D01*
G37*
D02*
G36*
X583Y1402D02*
X463Y1327D01*
X436Y1371D01*
X556Y1445D01*
X583Y1402D01*
G37*
D02*
G04 End of Copper0*
M02*